<mxfile host="app.diagrams.net" modified="2023-02-22T06:17:40.343Z" agent="5.0 (Windows NT 10.0; Win64; x64) AppleWebKit/537.36 (KHTML, like Gecko) Chrome/108.0.0.0 Safari/537.36 OPR/94.0.0.0" etag="gFcG7bN4r1SPV--3Wd7O" version="20.8.20" type="github">
  <diagram name="Page-1" id="tZQ85olv9KjOJLr_Hm8N">
    <mxGraphModel dx="841" dy="452" grid="1" gridSize="10" guides="1" tooltips="1" connect="1" arrows="1" fold="1" page="1" pageScale="1" pageWidth="1654" pageHeight="2336" math="0" shadow="0">
      <root>
        <mxCell id="0" />
        <mxCell id="1" parent="0" />
        <mxCell id="_yf5WQ7YPVkoK4HTsT3I-1" value="Search Book" style="ellipse;whiteSpace=wrap;html=1;" parent="1" vertex="1">
          <mxGeometry x="730" y="1010" width="120" height="80" as="geometry" />
        </mxCell>
        <mxCell id="_yf5WQ7YPVkoK4HTsT3I-2" value="Customer" style="shape=umlActor;verticalLabelPosition=bottom;verticalAlign=top;html=1;outlineConnect=0;" parent="1" vertex="1">
          <mxGeometry x="150" y="1470" width="30" height="60" as="geometry" />
        </mxCell>
        <mxCell id="_yf5WQ7YPVkoK4HTsT3I-3" value="Guest" style="shape=umlActor;verticalLabelPosition=bottom;verticalAlign=top;html=1;outlineConnect=0;" parent="1" vertex="1">
          <mxGeometry x="250" y="1320" width="30" height="60" as="geometry" />
        </mxCell>
        <mxCell id="_yf5WQ7YPVkoK4HTsT3I-6" value="Admin" style="shape=umlActor;verticalLabelPosition=bottom;verticalAlign=top;html=1;outlineConnect=0;" parent="1" vertex="1">
          <mxGeometry x="1370" y="430" width="30" height="60" as="geometry" />
        </mxCell>
        <mxCell id="_yf5WQ7YPVkoK4HTsT3I-9" value="Add book to&lt;br&gt;Basket" style="ellipse;whiteSpace=wrap;html=1;" parent="1" vertex="1">
          <mxGeometry x="730" y="1250" width="120" height="80" as="geometry" />
        </mxCell>
        <mxCell id="_yf5WQ7YPVkoK4HTsT3I-10" value="Search Branch" style="ellipse;whiteSpace=wrap;html=1;" parent="1" vertex="1">
          <mxGeometry x="730" y="1620" width="120" height="80" as="geometry" />
        </mxCell>
        <mxCell id="_yf5WQ7YPVkoK4HTsT3I-11" value="Add rating" style="ellipse;whiteSpace=wrap;html=1;" parent="1" vertex="1">
          <mxGeometry x="730" y="1120" width="120" height="80" as="geometry" />
        </mxCell>
        <mxCell id="_yf5WQ7YPVkoK4HTsT3I-12" value="Apply Coupon" style="ellipse;whiteSpace=wrap;html=1;" parent="1" vertex="1">
          <mxGeometry x="730" y="1510" width="120" height="80" as="geometry" />
        </mxCell>
        <mxCell id="_yf5WQ7YPVkoK4HTsT3I-13" value="Make payment" style="ellipse;whiteSpace=wrap;html=1;" parent="1" vertex="1">
          <mxGeometry x="730" y="1380" width="120" height="80" as="geometry" />
        </mxCell>
        <mxCell id="_yf5WQ7YPVkoK4HTsT3I-14" value="Add/Change&lt;br&gt;Credit card info" style="ellipse;whiteSpace=wrap;html=1;" parent="1" vertex="1">
          <mxGeometry x="730" y="1880" width="120" height="80" as="geometry" />
        </mxCell>
        <mxCell id="_yf5WQ7YPVkoK4HTsT3I-15" value="&amp;nbsp;Check&lt;br&gt;Shipping" style="ellipse;whiteSpace=wrap;html=1;" parent="1" vertex="1">
          <mxGeometry x="730" y="1760" width="120" height="80" as="geometry" />
        </mxCell>
        <mxCell id="_yf5WQ7YPVkoK4HTsT3I-16" value="Add book" style="ellipse;whiteSpace=wrap;html=1;" parent="1" vertex="1">
          <mxGeometry x="730" y="460" width="120" height="80" as="geometry" />
        </mxCell>
        <mxCell id="_yf5WQ7YPVkoK4HTsT3I-17" value="Remove Book" style="ellipse;whiteSpace=wrap;html=1;" parent="1" vertex="1">
          <mxGeometry x="730" y="350" width="120" height="80" as="geometry" />
        </mxCell>
        <mxCell id="_yf5WQ7YPVkoK4HTsT3I-18" value="Add Branch" style="ellipse;whiteSpace=wrap;html=1;" parent="1" vertex="1">
          <mxGeometry x="730" y="760" width="120" height="80" as="geometry" />
        </mxCell>
        <mxCell id="_yf5WQ7YPVkoK4HTsT3I-19" value="Remove Branch" style="ellipse;whiteSpace=wrap;html=1;" parent="1" vertex="1">
          <mxGeometry x="730" y="660" width="120" height="80" as="geometry" />
        </mxCell>
        <mxCell id="_yf5WQ7YPVkoK4HTsT3I-20" value="Add Event" style="ellipse;whiteSpace=wrap;html=1;" parent="1" vertex="1">
          <mxGeometry x="1060" y="20" width="120" height="80" as="geometry" />
        </mxCell>
        <mxCell id="_yf5WQ7YPVkoK4HTsT3I-21" value="Remove Event" style="ellipse;whiteSpace=wrap;html=1;" parent="1" vertex="1">
          <mxGeometry x="880" y="20" width="120" height="80" as="geometry" />
        </mxCell>
        <mxCell id="_yf5WQ7YPVkoK4HTsT3I-22" value="Search by title" style="ellipse;whiteSpace=wrap;html=1;" parent="1" vertex="1">
          <mxGeometry x="600" y="900" width="120" height="80" as="geometry" />
        </mxCell>
        <mxCell id="_yf5WQ7YPVkoK4HTsT3I-23" value="Search by author" style="ellipse;whiteSpace=wrap;html=1;" parent="1" vertex="1">
          <mxGeometry x="920" y="900" width="120" height="80" as="geometry" />
        </mxCell>
        <mxCell id="_yf5WQ7YPVkoK4HTsT3I-25" value="Modify Branch" style="ellipse;whiteSpace=wrap;html=1;" parent="1" vertex="1">
          <mxGeometry x="730" y="560" width="120" height="80" as="geometry" />
        </mxCell>
        <mxCell id="_yf5WQ7YPVkoK4HTsT3I-26" value="Remove rating" style="ellipse;whiteSpace=wrap;html=1;" parent="1" vertex="1">
          <mxGeometry x="730" y="140" width="120" height="80" as="geometry" />
        </mxCell>
        <mxCell id="_yf5WQ7YPVkoK4HTsT3I-27" value="Remove own rating" style="ellipse;whiteSpace=wrap;html=1;" parent="1" vertex="1">
          <mxGeometry x="880" y="1120" width="120" height="80" as="geometry" />
        </mxCell>
        <mxCell id="_yf5WQ7YPVkoK4HTsT3I-29" value="Modify Book" style="ellipse;whiteSpace=wrap;html=1;" parent="1" vertex="1">
          <mxGeometry x="730" y="250" width="120" height="80" as="geometry" />
        </mxCell>
        <mxCell id="_yf5WQ7YPVkoK4HTsT3I-30" value="Modify Event" style="ellipse;whiteSpace=wrap;html=1;" parent="1" vertex="1">
          <mxGeometry x="1260" y="20" width="120" height="80" as="geometry" />
        </mxCell>
        <mxCell id="_yf5WQ7YPVkoK4HTsT3I-34" value="Search by book&#39;s name" style="ellipse;whiteSpace=wrap;html=1;" parent="1" vertex="1">
          <mxGeometry x="950" y="1540" width="120" height="80" as="geometry" />
        </mxCell>
        <mxCell id="_yf5WQ7YPVkoK4HTsT3I-35" value="Search by name" style="ellipse;whiteSpace=wrap;html=1;" parent="1" vertex="1">
          <mxGeometry x="950" y="1680" width="120" height="80" as="geometry" />
        </mxCell>
        <mxCell id="_yf5WQ7YPVkoK4HTsT3I-37" value="" style="endArrow=none;html=1;rounded=0;" parent="1" edge="1">
          <mxGeometry width="50" height="50" relative="1" as="geometry">
            <mxPoint x="330" y="870" as="sourcePoint" />
            <mxPoint x="1480" y="870" as="targetPoint" />
          </mxGeometry>
        </mxCell>
        <mxCell id="_yf5WQ7YPVkoK4HTsT3I-40" value="" style="endArrow=none;html=1;rounded=0;exitX=1;exitY=0.3333333333333333;exitDx=0;exitDy=0;exitPerimeter=0;" parent="1" source="_yf5WQ7YPVkoK4HTsT3I-2" edge="1">
          <mxGeometry width="50" height="50" relative="1" as="geometry">
            <mxPoint x="770" y="1500" as="sourcePoint" />
            <mxPoint x="250" y="1410" as="targetPoint" />
          </mxGeometry>
        </mxCell>
        <mxCell id="_yf5WQ7YPVkoK4HTsT3I-41" value="" style="endArrow=none;html=1;rounded=0;exitX=1;exitY=0.3333333333333333;exitDx=0;exitDy=0;exitPerimeter=0;entryX=0;entryY=0.5;entryDx=0;entryDy=0;" parent="1" target="_yf5WQ7YPVkoK4HTsT3I-1" edge="1">
          <mxGeometry width="50" height="50" relative="1" as="geometry">
            <mxPoint x="270" y="1320" as="sourcePoint" />
            <mxPoint x="340" y="1240" as="targetPoint" />
          </mxGeometry>
        </mxCell>
        <mxCell id="_yf5WQ7YPVkoK4HTsT3I-42" value="" style="endArrow=none;html=1;rounded=0;entryX=0;entryY=0.5;entryDx=0;entryDy=0;" parent="1" target="_yf5WQ7YPVkoK4HTsT3I-11" edge="1">
          <mxGeometry width="50" height="50" relative="1" as="geometry">
            <mxPoint x="200" y="1520" as="sourcePoint" />
            <mxPoint x="720" y="1180" as="targetPoint" />
          </mxGeometry>
        </mxCell>
        <mxCell id="_yf5WQ7YPVkoK4HTsT3I-43" value="" style="endArrow=none;html=1;rounded=0;exitX=1;exitY=0.3333333333333333;exitDx=0;exitDy=0;exitPerimeter=0;entryX=0;entryY=0.5;entryDx=0;entryDy=0;" parent="1" target="_yf5WQ7YPVkoK4HTsT3I-9" edge="1">
          <mxGeometry width="50" height="50" relative="1" as="geometry">
            <mxPoint x="200" y="1520" as="sourcePoint" />
            <mxPoint x="730" y="1200" as="targetPoint" />
          </mxGeometry>
        </mxCell>
        <mxCell id="_yf5WQ7YPVkoK4HTsT3I-44" value="" style="endArrow=none;html=1;rounded=0;exitX=1;exitY=0.3333333333333333;exitDx=0;exitDy=0;exitPerimeter=0;entryX=0;entryY=0.5;entryDx=0;entryDy=0;" parent="1" target="_yf5WQ7YPVkoK4HTsT3I-13" edge="1">
          <mxGeometry width="50" height="50" relative="1" as="geometry">
            <mxPoint x="200" y="1520" as="sourcePoint" />
            <mxPoint x="730" y="1290" as="targetPoint" />
          </mxGeometry>
        </mxCell>
        <mxCell id="_yf5WQ7YPVkoK4HTsT3I-45" value="" style="endArrow=none;html=1;rounded=0;exitX=1;exitY=0.3333333333333333;exitDx=0;exitDy=0;exitPerimeter=0;entryX=0;entryY=0.5;entryDx=0;entryDy=0;" parent="1" target="_yf5WQ7YPVkoK4HTsT3I-10" edge="1">
          <mxGeometry width="50" height="50" relative="1" as="geometry">
            <mxPoint x="200" y="1520" as="sourcePoint" />
            <mxPoint x="730" y="1420" as="targetPoint" />
          </mxGeometry>
        </mxCell>
        <mxCell id="_yf5WQ7YPVkoK4HTsT3I-46" value="" style="endArrow=none;html=1;rounded=0;entryX=0;entryY=0.5;entryDx=0;entryDy=0;" parent="1" target="_yf5WQ7YPVkoK4HTsT3I-12" edge="1">
          <mxGeometry width="50" height="50" relative="1" as="geometry">
            <mxPoint x="200" y="1520" as="sourcePoint" />
            <mxPoint x="740" y="1558" as="targetPoint" />
          </mxGeometry>
        </mxCell>
        <mxCell id="_yf5WQ7YPVkoK4HTsT3I-47" value="" style="endArrow=none;html=1;rounded=0;entryX=0;entryY=0.5;entryDx=0;entryDy=0;" parent="1" target="_yf5WQ7YPVkoK4HTsT3I-15" edge="1">
          <mxGeometry width="50" height="50" relative="1" as="geometry">
            <mxPoint x="200" y="1520" as="sourcePoint" />
            <mxPoint x="740" y="1690" as="targetPoint" />
          </mxGeometry>
        </mxCell>
        <mxCell id="_yf5WQ7YPVkoK4HTsT3I-48" value="" style="endArrow=none;html=1;rounded=0;entryX=0;entryY=0.5;entryDx=0;entryDy=0;" parent="1" target="_yf5WQ7YPVkoK4HTsT3I-14" edge="1">
          <mxGeometry width="50" height="50" relative="1" as="geometry">
            <mxPoint x="200" y="1520" as="sourcePoint" />
            <mxPoint x="740" y="1810" as="targetPoint" />
          </mxGeometry>
        </mxCell>
        <mxCell id="_yf5WQ7YPVkoK4HTsT3I-49" value="" style="endArrow=none;html=1;rounded=0;entryX=0;entryY=0.3333333333333333;entryDx=0;entryDy=0;entryPerimeter=0;exitX=0.5;exitY=1;exitDx=0;exitDy=0;" parent="1" source="_yf5WQ7YPVkoK4HTsT3I-20" target="_yf5WQ7YPVkoK4HTsT3I-6" edge="1">
          <mxGeometry width="50" height="50" relative="1" as="geometry">
            <mxPoint x="1220" y="410" as="sourcePoint" />
            <mxPoint x="1340" y="470" as="targetPoint" />
          </mxGeometry>
        </mxCell>
        <mxCell id="_yf5WQ7YPVkoK4HTsT3I-50" value="" style="endArrow=none;html=1;rounded=0;exitX=0.5;exitY=1;exitDx=0;exitDy=0;" parent="1" source="_yf5WQ7YPVkoK4HTsT3I-21" edge="1">
          <mxGeometry width="50" height="50" relative="1" as="geometry">
            <mxPoint x="1130" y="110" as="sourcePoint" />
            <mxPoint x="1370" y="450" as="targetPoint" />
          </mxGeometry>
        </mxCell>
        <mxCell id="_yf5WQ7YPVkoK4HTsT3I-51" value="" style="endArrow=none;html=1;rounded=0;exitX=1;exitY=0.5;exitDx=0;exitDy=0;" parent="1" source="_yf5WQ7YPVkoK4HTsT3I-26" edge="1">
          <mxGeometry width="50" height="50" relative="1" as="geometry">
            <mxPoint x="950" y="110" as="sourcePoint" />
            <mxPoint x="1370" y="450" as="targetPoint" />
          </mxGeometry>
        </mxCell>
        <mxCell id="_yf5WQ7YPVkoK4HTsT3I-53" value="" style="endArrow=none;html=1;rounded=0;exitX=1;exitY=0.5;exitDx=0;exitDy=0;" parent="1" source="_yf5WQ7YPVkoK4HTsT3I-17" edge="1">
          <mxGeometry width="50" height="50" relative="1" as="geometry">
            <mxPoint x="860" y="300" as="sourcePoint" />
            <mxPoint x="1370" y="450" as="targetPoint" />
          </mxGeometry>
        </mxCell>
        <mxCell id="_yf5WQ7YPVkoK4HTsT3I-54" value="" style="endArrow=none;html=1;rounded=0;exitX=1;exitY=0.5;exitDx=0;exitDy=0;" parent="1" source="_yf5WQ7YPVkoK4HTsT3I-16" edge="1">
          <mxGeometry width="50" height="50" relative="1" as="geometry">
            <mxPoint x="850" y="390" as="sourcePoint" />
            <mxPoint x="1370" y="450" as="targetPoint" />
          </mxGeometry>
        </mxCell>
        <mxCell id="_yf5WQ7YPVkoK4HTsT3I-55" value="" style="endArrow=none;html=1;rounded=0;exitX=1;exitY=0.5;exitDx=0;exitDy=0;" parent="1" source="_yf5WQ7YPVkoK4HTsT3I-19" edge="1">
          <mxGeometry width="50" height="50" relative="1" as="geometry">
            <mxPoint x="850" y="500" as="sourcePoint" />
            <mxPoint x="1370" y="450" as="targetPoint" />
          </mxGeometry>
        </mxCell>
        <mxCell id="_yf5WQ7YPVkoK4HTsT3I-56" value="" style="endArrow=none;html=1;rounded=0;exitX=1;exitY=0.5;exitDx=0;exitDy=0;" parent="1" source="_yf5WQ7YPVkoK4HTsT3I-18" edge="1">
          <mxGeometry width="50" height="50" relative="1" as="geometry">
            <mxPoint x="850" y="700" as="sourcePoint" />
            <mxPoint x="1370" y="450" as="targetPoint" />
          </mxGeometry>
        </mxCell>
        <mxCell id="_yf5WQ7YPVkoK4HTsT3I-57" value="Extends" style="endArrow=block;endSize=16;endFill=0;html=1;rounded=0;entryX=1;entryY=0;entryDx=0;entryDy=0;exitX=0;exitY=0.5;exitDx=0;exitDy=0;" parent="1" source="_yf5WQ7YPVkoK4HTsT3I-34" target="_yf5WQ7YPVkoK4HTsT3I-10" edge="1">
          <mxGeometry width="160" relative="1" as="geometry">
            <mxPoint x="950" y="1519.23" as="sourcePoint" />
            <mxPoint x="1110" y="1519.23" as="targetPoint" />
          </mxGeometry>
        </mxCell>
        <mxCell id="_yf5WQ7YPVkoK4HTsT3I-58" value="Extends" style="endArrow=block;endSize=16;endFill=0;html=1;rounded=0;entryX=1;entryY=1;entryDx=0;entryDy=0;exitX=0;exitY=0.5;exitDx=0;exitDy=0;" parent="1" source="_yf5WQ7YPVkoK4HTsT3I-35" target="_yf5WQ7YPVkoK4HTsT3I-10" edge="1">
          <mxGeometry width="160" relative="1" as="geometry">
            <mxPoint x="950" y="1650" as="sourcePoint" />
            <mxPoint x="850" y="1678.77" as="targetPoint" />
          </mxGeometry>
        </mxCell>
        <mxCell id="_yf5WQ7YPVkoK4HTsT3I-59" value="Extends" style="endArrow=block;endSize=16;endFill=0;html=1;rounded=0;exitX=0.5;exitY=1;exitDx=0;exitDy=0;entryX=0;entryY=0;entryDx=0;entryDy=0;" parent="1" source="_yf5WQ7YPVkoK4HTsT3I-22" target="_yf5WQ7YPVkoK4HTsT3I-1" edge="1">
          <mxGeometry width="160" relative="1" as="geometry">
            <mxPoint x="880" y="980" as="sourcePoint" />
            <mxPoint x="790" y="1009" as="targetPoint" />
          </mxGeometry>
        </mxCell>
        <mxCell id="_yf5WQ7YPVkoK4HTsT3I-62" value="Extends" style="endArrow=block;endSize=16;endFill=0;html=1;rounded=0;entryX=1;entryY=0;entryDx=0;entryDy=0;exitX=0;exitY=1;exitDx=0;exitDy=0;" parent="1" source="_yf5WQ7YPVkoK4HTsT3I-23" target="_yf5WQ7YPVkoK4HTsT3I-1" edge="1">
          <mxGeometry width="160" relative="1" as="geometry">
            <mxPoint x="880" y="1010" as="sourcePoint" />
            <mxPoint x="982" y="1066" as="targetPoint" />
          </mxGeometry>
        </mxCell>
        <mxCell id="W_PnwGskH5_R9AePIkD9-1" value="Extend" style="endArrow=block;endSize=16;endFill=0;html=1;rounded=0;entryX=1;entryY=0;entryDx=0;entryDy=0;exitX=0.5;exitY=0;exitDx=0;exitDy=0;" parent="1" source="_yf5WQ7YPVkoK4HTsT3I-12" edge="1">
          <mxGeometry width="160" relative="1" as="geometry">
            <mxPoint x="790" y="1486.5035306490386" as="sourcePoint" />
            <mxPoint x="790" y="1460" as="targetPoint" />
          </mxGeometry>
        </mxCell>
      </root>
    </mxGraphModel>
  </diagram>
</mxfile>
